<?xml version="1.0" encoding="UTF-8" standalone="no"?><!DOCTYPE svg PUBLIC "-//W3C//DTD SVG 1.1//EN" "http://www.w3.org/Graphics/SVG/1.1/DTD/svg11.dtd"><svg width="100%" height="100%" viewBox="0 0 574 571" version="1.1" xmlns="http://www.w3.org/2000/svg" xmlns:xlink="http://www.w3.org/1999/xlink" xml:space="preserve" xmlns:serif="http://www.serif.com/" style="fill-rule:evenodd;clip-rule:evenodd;stroke-linejoin:round;stroke-miterlimit:2;"><g id="Layer_2_1_"><g><g><path d="M294.6,484c-20,0 -40.2,-5.1 -55.4,-13.9c-15.6,-9 -24.6,-21.1 -24.6,-33.2l0,-10l4,0c0,10.6 8.2,21.4 22.6,29.7c14.7,8.5 34.1,13.3 53.4,13.3c15.9,0 30.4,-3.3 40.8,-9.3c10,-5.8 15.5,-13.6 15.6,-22.1l0,-3.2l4,2l0,11c0,10.1 -6.3,19.2 -17.6,25.8c-11,6.4 -26.2,9.9 -42.8,9.9Z" style="fill:#4b6e98;fill-rule:nonzero;"/><path d="M216.7,426.9c-0,10.9 8,22.4 23.6,31.4c15.6,9 35.5,13.6 54.4,13.6c15.7,-0 30.6,-3.2 41.8,-9.6c11,-6.4 16.5,-14.9 16.6,-23.8l0,9.9c0,9 -5.5,17.6 -16.6,24c-11.2,6.5 -26.1,9.6 -41.8,9.6c-18.9,0 -38.9,-4.6 -54.4,-13.6c-15.6,-9 -23.6,-20.5 -23.6,-31.4l0,-10.1m4,0l-8,0l0,10c0,12.8 9.3,25.5 25.6,34.9c15.6,9 36.1,14.1 56.4,14.1c16.9,0 32.5,-3.6 43.8,-10.1c10.5,-6.1 16.9,-14.3 18.3,-23.5l0.3,0l0,-16.4l-2.2,-1.1l-5.7,-2.9l-0.1,6.4c-0.1,7.8 -5.3,15 -14.6,20.4c-10.1,5.9 -24.3,9.1 -39.8,9.1c-18.9,-0 -38,-4.8 -52.4,-13.1c-13.8,-7.7 -21.6,-17.9 -21.6,-27.8Z" style="fill:#231f20;fill-rule:nonzero;"/></g><g><path d="M294.6,474c-20,0 -40.2,-5.1 -55.4,-13.9c-15.6,-9 -24.6,-21.1 -24.6,-33.2c0,-10.1 6.3,-19.3 17.6,-25.9c11,-6.4 26.2,-9.9 42.8,-9.9c2.6,0 5.3,0.1 7.9,0.3l0.5,0l70.9,41l0.2,0.9c2.3,11.9 -3.9,23.1 -17.2,30.7c-10.9,6.4 -26.1,10 -42.7,10Z" style="fill:#b1caec;fill-rule:nonzero;"/><path d="M275.1,393.2c2.6,0 5.2,0.1 7.8,0.3l69.8,40.3c2.1,10.6 -3.2,21.1 -16.2,28.6c-11.2,6.5 -26.1,9.6 -41.8,9.6c-18.9,0 -38.9,-4.6 -54.4,-13.6c-28.5,-16.4 -31.6,-41.3 -6.9,-55.6c11.1,-6.4 26,-9.6 41.7,-9.6m0,-4c-16.9,0 -32.5,3.6 -43.8,10.1c-12,6.9 -18.6,16.7 -18.6,27.6c-0,12.8 9.3,25.5 25.6,34.9c15.6,9 36.1,14.1 56.4,14.1c16.9,0 32.5,-3.6 43.8,-10.1c14,-8.1 20.6,-20.1 18.1,-32.9l-0.4,-1.8l-1.6,-0.9l-69.7,-40.2l-0.8,-0.5l-0.9,-0.1c-2.7,-0.1 -5.5,-0.2 -8.1,-0.2Z" style="fill:#231f20;fill-rule:nonzero;"/></g><g><path d="M312,441.5c-0.3,0 -0.7,-0.1 -1,-0.3c-0.6,-0.4 -1,-1 -1,-1.7l0,-29.2c0,-0.7 0.4,-1.4 1,-1.7c0.3,-0.2 0.7,-0.3 1,-0.3c0.3,0 0.7,0.1 1,0.3l10,5.8c0.6,0.4 1,1 1,1.7l0,17.7c0,0.7 -0.4,1.4 -1,1.7l-10,5.8c-0.3,0.1 -0.6,0.2 -1,0.2Z" style="fill:#4b6e98;fill-rule:nonzero;"/><path d="M312,410.3l10,5.8l0,17.7l-10,5.8l0,-29.3m0,-4c-0.7,0 -1.4,0.2 -2,0.5c-1.2,0.7 -2,2 -2,3.5l0,29.2c0,1.4 0.8,2.8 2,3.5c0.6,0.4 1.3,0.5 2,0.5c0.7,0 1.4,-0.2 2,-0.5l10,-5.8c1.2,-0.7 2,-2 2,-3.5l0,-17.7c0,-1.4 -0.8,-2.7 -2,-3.5l-10,-5.8c-0.6,-0.3 -1.3,-0.4 -2,-0.4Z" style="fill:#231f20;fill-rule:nonzero;"/></g><g><path d="M312,441.5c-0.3,0 -0.7,-0.1 -1,-0.3l-50.1,-28.9c-0.6,-0.4 -1,-1 -1,-1.7l0,-29.2c0,-0.7 0.4,-1.4 1,-1.7c0.3,-0.2 0.7,-0.3 1,-0.3c0.3,0 0.7,0.1 1,0.3l50.1,28.9c0.6,0.4 1,1 1,1.7l0,29.2c0,0.7 -0.4,1.4 -1,1.7c-0.3,0.2 -0.6,0.3 -1,0.3Z" style="fill:#6885a9;fill-rule:nonzero;"/><path d="M261.9,381.4l50.1,28.9l0,29.2l-50.1,-28.9l0,-29.2m0,-4c-0.7,-0 -1.4,0.2 -2,0.5c-1.2,0.7 -2,2 -2,3.5l0,29.2c0,1.4 0.8,2.8 2,3.5l50.1,28.9c0.6,0.4 1.3,0.5 2,0.5c0.7,0 1.4,-0.2 2,-0.5c1.2,-0.7 2,-2 2,-3.5l0,-29.2c0,-1.4 -0.8,-2.8 -2,-3.5l-50.1,-28.9c-0.6,-0.4 -1.3,-0.5 -2,-0.5Z" style="fill:#231f20;fill-rule:nonzero;"/></g><g><g><path d="M423.6,261l-277.8,-160.6l25.1,-14.5l277.7,160.6l0,219.2l-25,14.5l0,-219.2Z" style="fill:#b1caec;fill-rule:nonzero;"/></g></g><g><g><path d="M423.6,258.7l25,-14.5l0,221.5l-25,14.5l0,-221.5Z" style="fill:#4b6e98;fill-rule:nonzero;"/><path d="M446.6,247.7l0,216.9l-21.1,12.2l0,-216.9l21.1,-12.2m4,-7l-6,3.5l-21.1,12.2l-2,1.2l0,226.1l6,-3.5l21.1,-12.2l2,-1.2l0,-226.1Z" style="fill:#231f20;fill-rule:nonzero;"/></g></g><g><path d="M147.8,318.5l0,-221.6l276.2,161.3l0,221.5l-276.2,-161.2Z" style="fill:#cdd9ee;fill-rule:nonzero;"/><path d="M149.8,100.4l272.2,159l0,216.9l-272.2,-159l0,-216.9m-4,-6.9l0,226.1l2,1.2l272.2,159l6,-2.5l0,-220.3l-2,-1.2l-272.2,-159l-6,-3.3Z" style="fill:#231f20;fill-rule:nonzero;"/></g><g><path d="M386.6,238.7l-136.4,135.8l-100.3,-57.2l-0,-5.4l137.5,-131.1l99.2,57.9Z" style="fill:#f0f7ff;fill-rule:nonzero;"/></g><g><path d="M411,252.9l11,6.5l0,60.4l-97.5,97.6l-49.7,-28.6l136.2,-135.9Z" style="fill:#f0f7ff;fill-rule:nonzero;"/></g></g><g><g><path d="M171,88.2l271.7,157.3l0,219.9l-21.1,12.2l-66.8,-39.6c0.6,4.4 0,5.7 -1.8,9.8l0,0.6c0,9 -5.5,17.6 -16.7,24c-11.2,6.5 -26.1,9.6 -41.8,9.6c-18.9,0 -38.9,-4.6 -54.4,-13.6c-15.6,-9 -23.6,-20.5 -23.6,-31.4l0,-0.2c-1.3,-3.2 -2,-6.6 -2,-9.9c0,-10.1 6.3,-19.3 17.6,-25.9c7.6,-4.4 17.1,-7.4 27.6,-8.9l0,-10.9c0,-0.4 0.1,-0.7 -24.8,-14.8l-85.3,-49.2l0,-216.8l21.4,-12.2m0,-9.2l-4,2.3l-21.1,12.2l-4,2.3l0,226.1l4,2.3l106.1,60.6l0,0.7c-8.9,1.9 -17,4.8 -23.6,8.7c-14,8.1 -21.6,19.7 -21.6,32.8c0,3.8 0.7,7.6 2,11.4c0.6,13.8 10.6,27.2 27.5,37c16.2,9.3 37.5,14.7 58.4,14.7c17.6,-0 33.9,-3.8 45.8,-10.7c12.9,-7.5 20.2,-18.1 20.6,-30c0.2,-0.4 0.3,-0.8 0.4,-1.2l56,33.4l4,2.3l4,-2.3l21.1,-12.2l4,-2.3l0,-226.2l-4,-2.3l-271.6,-157.3l-4,-2.3Z" style="fill:#231f20;fill-rule:nonzero;"/></g></g></g></svg>