<?xml version="1.0" encoding="UTF-8" standalone="no"?><!DOCTYPE svg PUBLIC "-//W3C//DTD SVG 1.1//EN" "http://www.w3.org/Graphics/SVG/1.1/DTD/svg11.dtd"><svg width="100%" height="100%" viewBox="0 0 2159 1988" version="1.1" xmlns="http://www.w3.org/2000/svg" xmlns:xlink="http://www.w3.org/1999/xlink" xml:space="preserve" xmlns:serif="http://www.serif.com/" style="fill-rule:evenodd;clip-rule:evenodd;stroke-linejoin:round;stroke-miterlimit:2;"><g><path d="M1011.25,1070l-15.417,-0c-24.166,-0 -43.75,-19.583 -43.75,-43.75l0,-829.583c0,-24.167 19.584,-43.75 43.75,-43.75l15.834,-0c24.166,-0 43.75,19.583 43.75,43.75l-0,829.583c-0.417,24.167 -20,43.75 -44.167,43.75Z" style="fill-rule:nonzero;"/><path d="M1491.67,1760l-336.25,86.25l-293.75,-1207.5l1256.25,755l-626.25,366.25Z" style="fill-opacity:0.4;fill-rule:nonzero;"/><path d="M290.417,1688.33l-2.917,0l-0,2.084l2.917,-2.084Z" style="fill:#ccd8ee;fill-rule:nonzero;"/><path d="M290.417,1322.08l-2.917,0l-0,1.667l2.917,-1.667Z" style="fill:#ccd8ee;fill-rule:nonzero;"/><path d="M1155.42,1482.5l-859.584,-530l565.834,-341.25l862.083,529.583l-568.333,341.667Z" style="fill:#cdd9ee;fill-rule:nonzero;"/><path d="M290.417,955.833l-2.917,0l-0,1.667l2.917,-1.667Z" style="fill:#ccd8ee;fill-rule:nonzero;"/><path d="M287.5,1268.33l867.917,535l-0,-310.833l-867.917,-535l0,310.833Z" style="fill:#b5c5dc;fill-rule:nonzero;"/><path d="M1212.5,1447.92l-735.417,-460l505.417,-304.167l-120.833,-72.5l-565.834,341.25l859.584,530l57.083,-34.583Z" style="fill:#fff;fill-rule:nonzero;"/><path d="M1732.08,1456.25l-576.666,347.083l-0,-310.833l576.666,-346.667l0,310.417Z" style="fill:#6885a9;fill-rule:nonzero;"/><path d="M1766.25,1125.83l-904.583,-555l-604.167,364.167l-4.167,2.5l0,348.75l902.084,555.417l610.833,-367.5l0,-348.334l-0,0Zm-904.583,-514.583l862.083,529.167l-568.333,341.666l-859.584,-529.583l565.834,-341.25Zm861.666,549.583l0,290.417l-559.583,336.667l-0,-290.417l559.583,-336.667Zm-576.666,336.667l-0,290.417l-850.834,-524.584l0,-290.416l850.834,524.583Z" style="fill:#231f20;fill-rule:nonzero;"/><path d="M494.167,1274.58l-47.5,-29.583l-0,-45.833l47.5,29.583l-0,45.833Z" style="fill-rule:nonzero;"/><path d="M418.333,1227.92l-47.5,-29.584l0,-45.833l47.5,29.583l0,45.834Z" style="fill-rule:nonzero;"/></g></svg>